<svg width="240" height="240" viewBox="0 0 240 240" fill="none" xmlns="http://www.w3.org/2000/svg">
  <defs>
    <linearGradient id="g1" x1="20" y1="20" x2="220" y2="220" gradientUnits="userSpaceOnUse">
      <stop stop-color="#00A3FF"/>
      <stop offset="1" stop-color="#0066FF"/>
    </linearGradient>
    <linearGradient id="g2" x1="34" y1="34" x2="206" y2="206" gradientUnits="userSpaceOnUse">
      <stop stop-color="#FFFFFF" stop-opacity="0.95"/>
      <stop offset="1" stop-color="#E8F1FF" stop-opacity="0.92"/>
    </linearGradient>
  </defs>
  <rect x="20" y="20" width="200" height="200" rx="48" fill="url(#g1)"/>
  <rect x="34" y="34" width="172" height="172" rx="38" fill="url(#g2)"/>
  <path d="M76 150C83 165 98 176 120 176C145 176 161 162 161 143C161 124 149 114 121 108C95 102 90 98 90 90C90 81 99 74 114 74C129 74 139 80 145 91L162 80C153 62 137 52 114 52C90 52 72 66 72 88C72 111 89 121 117 127C142 132 143 138 143 146C143 154 134 160 120 160C103 160 91 153 84 139L76 150Z" fill="#0A2A66"/>
</svg>
